<svg xmlns="http://www.w3.org/2000/svg" xmlns:xlink="http://www.w3.org/1999/xlink" xml:space="preserve" id="Layer_1" x="0" y="0" style="enable-background:new 0 0 2500 2500" version="1.1" viewBox="0 0 2500 2500"><style>.st0{clip-path:url(#SVGID_00000081648457739569956610000001876617350633091971_)}</style><g id="Layer_x0020_1"><defs><path id="SVGID_1_" d="M0 0h2500v2500H0z"/></defs><clipPath id="SVGID_00000100375280126383360610000006838414456746908034_"><use xlink:href="#SVGID_1_" style="overflow:visible"/></clipPath><g style="clip-path:url(#SVGID_00000100375280126383360610000006838414456746908034_)"><path d="M2450 1608c-132 455-511 797-977 881v-356c84-32 160-83 222-149 34-37 64-78 87-122 44-84 68-177 68-272v-3c0-314-227-440-440-533l-108-48c-115-52-203-98-203-176 0-109 95-167 184-167 95 0 149 35 206 134l44 77 285-183-37-69c-65-124-176-220-308-266V30c28 5 55 11 83 18 3 1 6 1 9 2s6 1 9 2c1 0 2 0 3 1 7 2 15 4 23 6 534 155 901 644 901 1200 0 118-17 236-50 349h-1z" style="fill:#745ddf"/><path d="M1500 1604c0 143-129 232-249 232-144 0-226-119-242-229l-14-96-345 97 16 77c49 243 215 418 441 470v344c-61-7-122-19-181-35-8-2-17-4-25-7C368 2302 0 1813 0 1257V56C0 29 22 7 49 7h1058v344c-124 36-229 118-295 228-42 73-64 155-64 239v10c3 280 209 398 404 486l97 42 8 4c154 71 241 117 241 243l2 1z" style="fill:#2eb6ea"/><path d="M1849 1587v3c0 95-23 188-68 272-23 44-53 86-87 122-62 66-138 117-222 149v357l-100 9s-214 6-265 0l-1-343c-225-53-391-227-441-470l-16-77 345-97 14 96c16 110 98 229 242 229 120 0 249-89 249-232 0-126-87-172-242-243l-8-4-97-42c-195-88-401-205-404-486v-10c0-84 22-166 64-239 66-111 171-193 295-228V9c225-2 243-1 366 21v327c133 46 243 141 308 266l37 69-285 183-44-77c-57-99-111-134-206-134-90 0-184 58-184 167 0 79 88 125 203 176l108 48c213 93 440 219 440 533l-1-1z" style="fill:#fff"/></g><path d="M0 2500h2500V0H0z" style="fill:none"/></g></svg>