<svg xmlns="http://www.w3.org/2000/svg" xml:space="preserve" id="Layer_1" x="0" y="0" style="enable-background:new 0 0 18.6 26" version="1.1" viewBox="0 0 18.6 26"><style>.st0,.st1,.st2{fill:#00a3ff}.st1,.st2{opacity:.6;enable-background:new}.st2{opacity:.2}</style><path d="m1.7 11.7-.2.3c-2.3 3.6-1.8 8.3 1.3 11.3C4.5 25.1 6.9 26 9.3 26L1.7 11.7z" class="st0"/><path d="m9.3 16-7.6-4.4L9.3 26V16zM16.9 11.7l.2.3c2.3 3.6 1.8 8.3-1.3 11.3C14 25.1 11.7 26 9.3 26l7.6-14.3z" class="st1"/><path d="m9.3 16 7.6-4.4L9.3 26V16zM9.3 6.3v7.5l6.6-3.7-6.6-3.8z" class="st2"/><path d="m9.3 6.3-6.6 3.8 6.6 3.7V6.3z" class="st1"/><path d="M9.3 0 2.7 10.1l6.6-3.8V0z" class="st0"/><path d="m9.3 6.3 6.6 3.8L9.3 0v6.3z" class="st1"/></svg>