<svg xmlns:xlink="http://www.w3.org/1999/xlink" width="152" height="40" fill="none" xmlns="http://www.w3.org/2000/svg" id="svg-416561078_1682"><g clip-path="url(#svg-416561078_1682_a)" fill="#F1F0FA"><path d="M53.219 26.85v-13.7h15.066v2.83H56.487v2.705h10.764v2.594H56.487v2.74h12.057v2.832H53.219Zm29.435 0-7.053-5.498h-2.123v5.499h-3.36V13.149h3.36v5.5h2.05l6.757-5.5h4.764L78.703 20l8.789 6.85h-4.838Zm13.036.33c-5.798 0-7.405-2.065-7.405-5.59v-8.44h3.398v8.184c0 1.99.553 2.96 4.099 2.96h1.034c3.6 0 4.172-.987 4.172-2.96v-8.185h3.361v8.44c0 3.526-1.607 5.59-7.441 5.59h-1.219Zm10.326-.33v-13.7h11.447c2.917 0 4.468 1.187 4.468 3.415 0 1.48-.683 2.394-2.123 2.85v.183c1.754.274 2.733 1.535 2.733 3.434 0 2.43-1.551 3.819-4.265 3.819h-12.26Zm3.249-2.466h7.626c1.661 0 2.215-.456 2.215-1.772 0-1.169-.554-1.626-2.215-1.626h-7.626v3.398Zm0-5.772h7.22c1.477 0 2.031-.42 2.031-1.425 0-1.133-.536-1.571-2.031-1.571h-7.22v2.996Zm24.196 5.681c3.785 0 5.133-1.187 5.133-4.293s-1.348-4.293-5.115-4.293h-1.144c-3.785 0-5.115 1.187-5.115 4.293s1.367 4.293 5.096 4.293h1.145Zm-9.731-4.311c0-4.64 2.567-7.162 8.42-7.162h1.514c5.853 0 8.42 2.558 8.42 7.18 0 4.64-2.548 7.18-8.42 7.18h-1.514c-5.834 0-8.42-2.595-8.42-7.198Z" fill="#F1F0FA"></path><path fill-rule="evenodd" clip-rule="evenodd" d="M9.918 13.718c0-2.974 2.423-5.385 5.413-5.385h25.26c2.99 0 5.413 2.411 5.413 5.385v12.564c0 2.974-2.423 5.385-5.413 5.385h-25.26c-2.99 0-5.413-2.411-5.413-5.385V13.718ZM27.961 20c0 3.965-3.231 7.18-7.217 7.18-3.986 0-7.217-3.215-7.217-7.18s3.23-7.18 7.217-7.18c3.986 0 7.217 3.215 7.217 7.18Zm0 0c0-3.965 3.231-7.18 7.217-7.18 3.986 0 7.217 3.215 7.217 7.18s-3.23 7.18-7.217 7.18c-3.986 0-7.217-3.215-7.217-7.18Z" fill="#F1F0FA"></path></g><defs><clipPath id="svg-416561078_1682_a"><path fill="#fff" d="M0 0h152v40H0z"></path></clipPath></defs></svg>