<svg xmlns:xlink="http://www.w3.org/1999/xlink" xmlns="http://www.w3.org/2000/svg" width="155" height="38" viewBox="0 0 155 38" fill="none">
<g clip-path="url(#clip0_1714_8985)">
<path d="M26.2433 10.5C22.5547 10.5 19.5037 11.9596 17.7912 14.5205C17.1624 13.3648 16.2841 12.4409 15.1758 11.7717C13.7777 10.9286 12.0353 10.5 9.9925 10.5C7.06272 10.5 4.56855 11.3185 2.73656 12.8712V11.986C2.73656 11.2395 2.13585 10.6546 1.36828 10.6546C0.600709 10.6546 0 11.2395 0 11.986L0.00702584 12.5129V29.2151C0.00702584 29.9616 0.607735 30.5465 1.37531 30.5465C2.14288 30.5465 2.74359 29.9616 2.74359 29.2151V16.6792C3.93623 14.4977 6.69738 13.0925 9.79929 13.0925C12.0089 13.0925 13.5985 13.6124 14.6594 14.6821C15.715 15.7448 16.2508 17.4152 16.2508 19.6441V29.2098C16.2508 29.9563 16.8515 30.5412 17.619 30.5412C18.3866 30.5412 18.9873 29.9563 18.9873 29.2098V19.602C18.9873 17.5206 19.7654 15.8063 21.2391 14.6452C22.4932 13.6564 24.2444 13.089 26.043 13.089C28.2527 13.089 29.8422 13.6089 30.9049 14.6786C31.9605 15.7413 32.4963 17.4117 32.4963 19.6406V29.2063C32.4963 29.9528 33.097 30.5377 33.8645 30.5377C34.6321 30.5377 35.2328 29.9528 35.2328 29.2063V19.486C35.2328 16.7758 34.4266 14.517 32.8985 12.9538C31.3335 11.3519 29.0325 10.5035 26.2433 10.5035V10.5Z" fill="white"/>
<path d="M56.4406 10.6596C56.1824 10.6596 55.9541 10.7158 55.7591 10.8247C55.5501 10.9441 55.3797 11.125 55.2515 11.3622L47.9376 26.6469L40.759 11.4746C40.5148 10.9002 40.0581 10.7281 39.7525 10.6789L39.7279 10.6543H39.5101C38.7759 10.6543 38.1787 11.2339 38.1787 11.9471C38.1787 12.1666 38.2384 12.3247 38.2736 12.4213L38.3034 12.5021L46.5078 29.6258L46.0178 30.6621C44.9007 33.0088 43.5587 34.2734 42.0341 34.4209C41.3386 34.4859 40.8327 35.0287 40.8327 35.7119C40.8327 36.3952 41.4299 37.0047 42.1676 37.0047C42.2537 37.0047 42.4557 37.0047 42.6577 36.959C45.0693 36.5515 47.019 34.7916 48.454 31.7301L57.6262 12.5442C57.6701 12.4652 57.7053 12.3686 57.7316 12.2597C57.7492 12.1859 57.7703 12.0735 57.7703 11.9523C57.7703 11.2392 57.1731 10.6596 56.4389 10.6596H56.4406Z" fill="white"/>
<path d="M107.329 10.6523C106.652 10.6523 106.201 11.1213 106.067 11.5499L101.239 25.7842L96.5615 11.6623C96.5615 11.6623 96.5598 11.657 96.558 11.6535L96.5422 11.6026C96.3244 11.0054 95.8484 10.6523 95.2582 10.6523C94.6681 10.6523 94.1482 11.0423 93.9532 11.6641L89.2757 25.7842L84.4507 11.5569C84.3172 11.1213 83.8641 10.6523 83.1878 10.6523C82.4536 10.6523 81.8564 11.232 81.8564 11.9504C81.8564 11.9943 81.8564 12.0522 81.8652 12.119C81.874 12.1892 81.8916 12.2595 81.9232 12.3508L88.0234 29.8013L88.0304 29.8206C88.1288 30.0753 88.2781 30.2808 88.473 30.4301C88.6961 30.6022 88.9771 30.6935 89.2828 30.6935C89.8764 30.6935 90.3735 30.3282 90.5808 29.7363L95.2582 15.6161L99.9357 29.7363C100.15 30.3264 100.649 30.6935 101.235 30.6935C101.538 30.6935 101.817 30.6022 102.04 30.4318C102.237 30.2808 102.388 30.0753 102.486 29.8223L108.597 12.3368C108.623 12.2507 108.641 12.184 108.649 12.119C108.658 12.0522 108.66 11.996 108.66 11.9469C108.66 11.2337 108.063 10.6541 107.329 10.6541V10.6523Z" fill="white"/>
<path d="M129.356 10.6565C128.588 10.6565 127.988 11.2414 127.988 11.9879V12.7344C126.3 11.2906 123.964 10.502 121.336 10.502C118.708 10.502 116.009 11.5523 114.033 13.4581C112.037 15.3832 110.939 17.9318 110.939 20.6367C110.939 26.2469 115.603 30.8101 121.336 30.8101C124 30.8101 126.286 30.0408 127.988 28.5777V29.2118C127.988 29.9583 128.588 30.5432 129.356 30.5432C130.124 30.5432 130.724 29.9583 130.724 29.2118V11.9862C130.724 11.2397 130.124 10.6548 129.356 10.6548V10.6565ZM127.988 16.6338V24.717C126.823 26.8476 124.222 28.2211 121.336 28.2211C117.207 28.2211 113.718 24.7468 113.718 20.635C113.718 16.5231 117.207 13.0857 121.336 13.0857C124.231 13.0857 126.834 14.4751 127.988 16.632V16.6338Z" fill="white"/>
<path d="M151.177 13.4721C149.196 11.5558 146.603 10.502 143.876 10.502C141.148 10.502 138.912 11.2906 137.224 12.7344V11.9879C137.224 11.2414 136.623 10.6565 135.856 10.6565C135.088 10.6565 134.487 11.2414 134.487 11.9879V35.6035C134.487 36.35 135.088 36.9349 135.856 36.9349C136.623 36.9349 137.224 36.35 137.224 35.6035V28.5777C138.912 30.0215 141.248 30.8101 143.876 30.8101C149.609 30.8101 154.272 26.2469 154.272 20.6367C154.272 17.9458 153.173 15.4025 151.177 13.4721ZM151.493 20.6367C151.493 22.6408 150.696 24.5396 149.247 25.9834C147.798 27.4272 145.89 28.2229 143.876 28.2229C140.951 28.2229 138.35 26.8511 137.224 24.7222V16.6302C138.337 14.4768 140.939 13.0875 143.876 13.0875C148.005 13.0875 151.493 16.5442 151.493 20.6367Z" fill="white"/>
<path d="M61.215 31.9124C60.7952 31.9124 60.3824 31.8755 59.9784 31.7982C59.2214 31.6542 58.7225 30.92 58.8666 30.1559C59.0088 29.3936 59.7378 28.8913 60.4966 29.0353C61.7314 29.2689 63.1699 28.8825 64.5487 27.9428C65.9223 27.0084 67.0376 25.6524 67.6067 24.2226C68.4849 22.02 68.5025 20.7466 68.5236 18.9831C68.5359 18.0504 68.5499 16.993 68.6869 15.6528C68.8415 14.144 69.1348 11.8923 69.8971 9.76519C70.6823 7.57313 71.8222 5.83072 73.3819 4.44136C75.3931 2.64802 78.1999 1.46065 81.4985 1.01275C82.2626 0.909123 82.9652 1.44836 83.0671 2.21769C83.1707 2.98701 82.635 3.69487 81.8709 3.7985C79.9546 4.06021 77.2462 4.74874 75.2297 6.54736C72.509 8.97127 71.7976 12.6581 71.4621 15.9444C71.3374 17.1581 71.3234 18.1066 71.3128 19.0217C71.2882 20.9328 71.2672 22.5838 70.194 25.273C69.4211 27.2086 67.9334 29.0318 66.1102 30.2719C64.5294 31.3486 62.8309 31.9124 61.2167 31.9124H61.215Z" fill="url(#paint0_linear_1714_8985)"/>
</g>
<defs>
<linearGradient id="paint0_linear_1714_8985" x1="81.1418" y1="-1.07346" x2="55.9593" y2="32.563" gradientUnits="userSpaceOnUse">
<stop stop-color="#68ECF2"/>
<stop offset="1" stop-color="#3C4EAC"/>
</linearGradient>
<clipPath id="clip0_1714_8985">
<rect width="154.272" height="36.0039" fill="white" transform="translate(0 0.998047)"/>
</clipPath>
</defs>
</svg>