<svg xmlns:xlink="http://www.w3.org/1999/xlink" xmlns="http://www.w3.org/2000/svg" class="astro-flqx3job" viewBox="0 0 4096 2048" width="4096"  height="2048" ><polygon points="273.98219 782.715303 308.274821 724.027206 918.536339 724.027206 881.921988 782.715303" class="astro-flqx3job" fill-opacity="0.4" fill="#8C96F2"></polygon><polygon points="123.047035 1036.45232 572.007147 1036.45232 689.448769 841.102418 843.111489 841.102418 671.596606 1132.15641 62.9894254 1132.15641" class="astro-flqx3job" fill-opacity="0.4" fill="#8C96F2"></polygon><polygon points="415.362442 551.039609 723.643922 551.039609 674.492989 632.761397 364.879665 632.761397" class="astro-flqx3job" fill-opacity="0.4" fill="#8C96F2"></polygon><polygon points="852.861169 959.997494 1011.3077 959.997494 1184.98233 668.692756 1028.3208 668.692756" class="astro-flqx3job" fill-opacity="0.4" fill="#8C96F2"></polygon><polygon points="1099.58932 551.039609 1251.66184 551.039609 1217.74565 611.171546 1063.87951 611.171546" class="astro-flqx3job" fill-opacity="0.4" fill="#8C96F2"></polygon><polygon points="1328.76702 551.039609 1780.96579 551.039609 1744.38002 611.171546 1293.00131 611.171546" class="astro-flqx3job" fill-opacity="0.4" fill="#8C96F2"></polygon><polygon points="1407.04488 668.692756 1559.37837 668.692756 1389.03634 959.997494 1232.2807 959.997494" class="astro-flqx3job" fill-opacity="0.4" fill="#8C96F2"></polygon><polygon points="1866.88984 551.039609 2018.06898 551.039609 1982.14911 611.171546 1829.94634 611.171546" class="astro-flqx3job" fill-opacity="0.4" fill="#8C96F2"></polygon><polygon points="2166.28839 551.039609 2131.38402 611.171546 2282.52002 611.171546 2317.73055 551.039609" class="astro-flqx3job" fill-opacity="0.4" fill="#8C96F2"></polygon><polygon points="1619.71677 959.997494 1793.82474 668.692756 2245.42234 668.692756 2070 959.997494 1920.00766 959.997494 2058.35933 728.605712 1917.21186 728.605712 1773.20407 959.997494" class="astro-flqx3job" fill-opacity="0.4" fill="#8C96F2"></polygon><polygon points="2324.00538 1036.56192 2024.42687 1036.56192 2070 959.997494 2370.44506 959.997494" class="astro-flqx3job" fill-opacity="0.4" fill="#8C96F2"></polygon><polygon points="1965.8537 1130.29635 2569.17173 1131.29635 2533.08877 1190.0023 1931.56956 1189.0023" class="astro-flqx3job" fill-opacity="0.4" fill="#8C96F2"></polygon><polygon points="2342.62879 1246.21865 2497.84076 1246.21865 2320.55335 1539.82471 1719.59673 1539.82471 1779.17921 1440.78087 2228.46903 1440.78087" class="astro-flqx3job" fill-opacity="0.4" fill="#8C96F2"></polygon><polygon points="2746.42052 958.997494 2901.19205 958.997494 2866.7421 1018.09031 2713.63641 1018.09031" class="astro-flqx3job" fill-opacity="0.4" fill="#8C96F2"></polygon><polygon points="3112.16454 958.997494 3269.24082 958.997494 3234.34827 1018.09031 3076.09932 1018.09031" class="astro-flqx3job" fill-opacity="0.4" fill="#8C96F2"></polygon><polygon points="3642.59384 958.997494 4031.93626 958.997494 3997.84775 1018.09031 3607.69884 1018.09031" class="astro-flqx3job" fill-opacity="0.4" fill="#8C96F2"></polygon><polygon points="3302.18094 1018.09031 3335.46036 958.997494 3525.98452 958.997494 3525.98452 1018.09031" class="astro-flqx3job" fill-opacity="0.4" fill="#8C96F2"></polygon><polygon points="2676.87336 1075.63847 2833.34386 1075.63847 2750.49615 1215.95739 2894.0549 1145.79793 2954.45658 1227.53196 3048.88431 1075.63847 3200.26341 1075.63847 3026.63695 1366.65766 2869.0459 1366.65766 2818.17369 1271.13425 2658.28945 1366.65766 2498.84076 1366.65766" class="astro-flqx3job" fill-opacity="0.4" fill="#8C96F2"></polygon><polygon points="3265.16219 1075.63847 3525.98452 1075.63847 3521.98452 1290.22444 3616.01618 1135.76045 3765.38441 1134.76045 3800.71811 1075.63847 3963.55288 1075.63847 3875.59928 1224.33154 3724.5429 1224.33154 3637.93146 1366.65766 3367.33626 1366.65766 3373.47617 1159.09581 3247.84504 1366.65766 3088.00167 1366.65766" class="astro-flqx3job" fill-opacity="0.4" fill="#8C96F2"></polygon></svg>